<?xml version="1.0" encoding="utf-8"?>
<!-- Generator: Adobe Illustrator 21.1.0, SVG Export Plug-In . SVG Version: 6.00 Build 0)  -->
<svg version="1.1" id="Layer_1" xmlns="http://www.w3.org/2000/svg" xmlns:xlink="http://www.w3.org/1999/xlink" x="0px" y="0px"
	viewBox="0 0 32 32">
<style type="text/css">
	.st0{fill:#003271;}
</style>
<g>
	<path class="st0" d="M3.6,10.4H0.8c-0.4,0-0.8,0.3-0.8,0.8s0.3,0.8,0.8,0.8h2.8c0.4,0,0.8-0.3,0.8-0.8S4,10.4,3.6,10.4z"/>
	<path class="st0" d="M31.2,10.4h-2.8c-0.4,0-0.8,0.3-0.8,0.8s0.3,0.8,0.8,0.8h2.8c0.4,0,0.8-0.3,0.8-0.8S31.7,10.4,31.2,10.4z"/>
	<path class="st0" d="M6.8,20.4c-0.3-0.3-0.8-0.3-1.1,0l-2,2c-0.3,0.3-0.3,0.8,0,1.1c0.2,0.2,0.3,0.2,0.5,0.2s0.4-0.1,0.5-0.2l2-2
		C7.1,21.2,7.1,20.7,6.8,20.4z"/>
	<path class="st0" d="M26.9,0.2c-0.3-0.3-0.8-0.3-1.1,0l-2,2c-0.3,0.3-0.3,0.8,0,1.1c0.2,0.2,0.3,0.2,0.5,0.2c0.2,0,0.4-0.1,0.5-0.2
		l2-2C27.3,1,27.3,0.5,26.9,0.2z"/>
	<path class="st0" d="M8.1,2.2l-2-2c-0.3-0.3-0.8-0.3-1.1,0C4.7,0.5,4.7,1,5.1,1.3l2,2c0.2,0.2,0.3,0.2,0.5,0.2S8,3.4,8.1,3.3
		C8.4,3,8.4,2.5,8.1,2.2z"/>
	<path class="st0" d="M28.4,22.4l-2-2c-0.3-0.3-0.8-0.3-1.1,0c-0.3,0.3-0.3,0.8,0,1.1l2,2c0.2,0.2,0.3,0.2,0.5,0.2
		c0.2,0,0.4-0.1,0.5-0.2C28.7,23.2,28.7,22.7,28.4,22.4z"/>
	<path class="st0" d="M16,2.1c-5.4,0-9.7,4.6-9.7,10.2c0,2.6,0.9,5.4,2.6,7.7c1.3,1.8,1.9,3.7,1.9,5.6v4.9c0,0.9,0.7,1.6,1.6,1.6
		h7.4c0.9,0,1.6-0.7,1.6-1.6v-4.9c0-1.9,0.7-3.9,1.9-5.6c1.6-2.3,2.6-5.1,2.6-7.7C25.7,6.7,21.4,2.1,16,2.1z M19.7,30.5h-7.4v-1H16
		c0.4,0,0.8-0.3,0.8-0.8s-0.3-0.8-0.8-0.8h-3.7v-1h7.4L19.7,30.5C19.7,30.5,19.7,30.5,19.7,30.5z M14.9,16l-1-2.2h4.2l-1,2.2
		c0,0.1-0.1,0.2-0.1,0.3l-0.6,9.1h-0.8L15,16.3C15,16.2,15,16.1,14.9,16z M21.9,19.1c-1.4,1.9-2.1,4.1-2.2,6.3H18l0.6-8.8l1.5-3.2
		c0.1-0.2,0.1-0.5,0-0.7c-0.1-0.2-0.4-0.4-0.7-0.4h-6.7c-0.3,0-0.5,0.1-0.7,0.4c-0.1,0.2-0.2,0.5,0,0.7l1.5,3.2l0.6,8.8h-1.7
		c-0.1-2.2-0.8-4.3-2.2-6.3c-1.4-2-2.3-4.5-2.3-6.8c0-4.8,3.7-8.6,8.2-8.6s8.2,3.9,8.2,8.6C24.2,14.5,23.3,17.1,21.9,19.1z"/>
</g>
</svg>
