<?xml version="1.0" encoding="utf-8"?>
<!-- Generator: Adobe Illustrator 21.1.0, SVG Export Plug-In . SVG Version: 6.00 Build 0)  -->
<svg version="1.1" id="Capa_1" xmlns="http://www.w3.org/2000/svg" xmlns:xlink="http://www.w3.org/1999/xlink" x="0px" y="0px"
	 viewBox="0 0 14.4 49.1" style="enable-background:new 0 0 14.4 49.1;" xml:space="preserve">
<style type="text/css">
	.st0{fill:#003271;}
</style>
<g>
	<path class="st0" d="M0.9,48.8l8-15.8c0.3-0.6,0.1-1.7-0.4-1.7H7.9c-0.4,0-0.7-1-0.4-1.7l4.3-10.5c0.3-0.7,0-1.7-0.4-1.7H9.2
		c-0.4,0-0.7-1-0.4-1.6l5.5-14.2C14.5,1,14.3,0,13.8,0H5.2C5,0,4.8,0.2,4.8,0.6L0.5,17.2c-0.2,0.7,0.1,1.5,0.5,1.5H3
		c0.4,0,0.6,0.8,0.5,1.5L0.5,31.6c-0.2,0.7,0.1,1.5,0.5,1.5h1.8c0.4,0,0.6,0.8,0.5,1.5L0.1,47.6C-0.2,48.7,0.5,49.6,0.9,48.8z"/>
</g>
</svg>
