<?xml version="1.0" encoding="utf-8"?>
<!-- Generator: Adobe Illustrator 21.1.0, SVG Export Plug-In . SVG Version: 6.00 Build 0)  -->
<svg version="1.1" id="Layer_1" xmlns="http://www.w3.org/2000/svg" xmlns:xlink="http://www.w3.org/1999/xlink" x="0px" y="0px"
	 viewBox="0 0 32 23.3">
<style type="text/css">
	.st0{fill:#CCCCCC;}
    .st1{fill:#003271;}
</style>
<g class="st1">
	<path d="M30.1,1.5H1.9c-0.2,0-0.3,0.2-0.3,0.3v17.2c0,0.2,0.2,0.3,0.3,0.3h28.3c0.2,0,0.3-0.2,0.3-0.3V1.9
		C30.5,1.7,30.3,1.5,30.1,1.5z M29.8,18.8H2.2V2.2h27.6V18.8z"/>

    <path d="M30.5,0h-29C0.7,0,0,0.7,0,1.5v18C0,20.3,0.7,21,1.5,21h10.1L11,22.3H8.9c-0.3,0-0.5,0.2-0.5,0.5c0,0.3,0.2,0.5,0.5,0.5
		h14.3c0.3,0,0.5-0.2,0.5-0.5c0-0.3-0.2-0.5-0.5-0.5H21L20.4,21h10.1c0.8,0,1.5-0.7,1.5-1.5v-18C32,0.7,31.3,0,30.5,0L30.5,0z
		 M19.9,22.3h-7.7l0.5-1.3h6.7L19.9,22.3z M31,19.5c0,0.3-0.2,0.5-0.5,0.5h-29c-0.3,0-0.5-0.2-0.5-0.5v-18C1,1.2,1.2,1,1.5,1h29
		C30.8,1,31,1.2,31,1.5V19.5z"/>
</g>
<rect x="2.5" y="2.5" class="st0" width="26.9" height="16"/>
</svg>
