<?xml version="1.0" encoding="utf-8"?>
<!-- Generator: Adobe Illustrator 21.1.0, SVG Export Plug-In . SVG Version: 6.00 Build 0)  -->
<svg version="1.1" id="Layer_1" xmlns="http://www.w3.org/2000/svg" xmlns:xlink="http://www.w3.org/1999/xlink" x="0px" y="0px"
	 viewBox="0 0 32 49.7">
<style type="text/css">
	.st0{fill:#003271;}
	.st1{fill:#CCCCCC;}
</style>
<g>
	<path class="st0" d="M28.9,0H3.1C1.4,0,0,1.4,0,3.1v43.4c0,1.7,1.4,3.1,3.1,3.1h25.7c1.7,0,3.1-1.4,3.1-3.1V3.1
		C32,1.4,30.6,0,28.9,0z M1.6,7.9h28.8v32.9H1.6V7.9z M3.1,1.6h25.7c0.9,0,1.6,0.7,1.6,1.6v3.7H1.6V3.1C1.6,2.3,2.3,1.6,3.1,1.6z
		 M28.9,48.1H3.1c-0.9,0-1.6-0.7-1.6-1.6v-4.7h28.8v4.7C30.4,47.4,29.7,48.1,28.9,48.1z"/>
	<path class="st0" d="M16,42.5c-1.4,0-2.6,1.2-2.6,2.6s1.2,2.6,2.6,2.6s2.6-1.2,2.6-2.6C18.6,43.7,17.4,42.5,16,42.5z M16,46.6
		c-0.8,0-1.5-0.7-1.5-1.5c0-0.8,0.7-1.5,1.5-1.5s1.5,0.7,1.5,1.5C17.5,45.9,16.8,46.6,16,46.6z"/>
	<path class="st0" d="M12.4,5h7.1c0.3,0,0.5-0.2,0.5-0.5S19.9,4,19.6,4h-7.1c-0.3,0-0.5,0.2-0.5,0.5S12.1,5,12.4,5z"/>
	<path class="st0" d="M10.5,5c0.1,0,0.3-0.1,0.4-0.2c0.1-0.1,0.2-0.2,0.2-0.4S11,4.2,10.9,4.1C10.8,4,10.7,4,10.5,4
		c-0.1,0-0.3,0.1-0.4,0.2C10.1,4.2,10,4.3,10,4.5s0.1,0.3,0.2,0.4C10.3,5,10.4,5,10.5,5z"/>
</g>
<rect x="1.9" y="8.1" class="st1" width="28.2" height="32.3"/>
</svg>
